<?xml version="1.0" encoding="utf-8"?>
<!-- Generator: Adobe Illustrator 15.0.0, SVG Export Plug-In . SVG Version: 6.00 Build 0)  -->
<!DOCTYPE svg PUBLIC "-//W3C//DTD SVG 1.1//EN" "http://www.w3.org/Graphics/SVG/1.1/DTD/svg11.dtd">
<svg version="1.1" id="Layer_1" xmlns="http://www.w3.org/2000/svg" xmlns:xlink="http://www.w3.org/1999/xlink" x="0px" y="0px"
	 width="480px" height="640px" viewBox="0 0 480 640" enable-background="new 0 0 480 640" xml:space="preserve">
<g id="tool_-_headphone">
	<g>
		<path fill="#5C5E62" d="M381,125c-39-27-87-45-141-45C108,80,0,188,0,320c0,9,0,21,3,30l0,0c-3,6-3,9-3,15v120c0,6,0,12,3,18.001
			L30,476V365c0-9,6-15,15-15h60c9,0,15,6,15,15v21l30-30c-3-18-24-36-45-36H45c-6,0-9,0-15,3v-3c0-117,93-210,210-210
			c45,0,87,15,120,39L381,125z M477,350c3-9,3-21,3-30c0-54-18-102-45-141l-24,21c24,33,39,75,39,120v3c-6-3-9-3-15-3h-60
			c-24,0-45,21-45,45v120c0,24,21,45,45,45h60c24,0,45-21,45-45V365C480,359,480,356,477,350L477,350z M450,485c0,9-6,15-15,15h-60
			c-9,0-15-6-15-15V365c0-9,6-15,15-15h60c9,0,15,6,15,15V485z M144,470l-60,60h21c24,0,45-21,45-45v-21L144,470L144,470z"/>
	</g>
</g>
<polygon fill="#5C5E62" points="483,98 138,443 18,563.001 -3,542 117,422 342,197 462,77 "/>
<polygon fill="#5C5E62" points="342,197 117,422 117,422 "/>
</svg>
