<?xml version="1.0" encoding="utf-8"?>
<!-- Generator: Adobe Illustrator 15.0.0, SVG Export Plug-In . SVG Version: 6.00 Build 0)  -->
<!DOCTYPE svg PUBLIC "-//W3C//DTD SVG 1.1//EN" "http://www.w3.org/Graphics/SVG/1.1/DTD/svg11.dtd">
<svg version="1.1" id="Layer_1" xmlns="http://www.w3.org/2000/svg" xmlns:xlink="http://www.w3.org/1999/xlink" x="0px" y="0px"
	 width="480px" height="640px" viewBox="0 0 480 640" enable-background="new 0 0 480 640" xml:space="preserve">
<g id="communication_-_mic_silent_mute">
	<g>
		<path fill="#5C5E62" d="M165,326V185c0-42,33-75,75-75c39,0,71.999,30,75,69l24-24c-12-45-51-75-99-75c-57,0-105,48-105,105v150
			c0,6,0,15,3,21L165,326z M315,335c0,42-33,75-75,75c-15,0-30-3-39-12l-21,21c15,12,36,21,60,21c57,0,105-48,105-105v-81l-30,30
			V335z M375,320v30c0,66-54,120-120,120h-30c-27,0-51-9-72-24l-21,21c24,21.001,57,33,93,33v30h-15c-9,0-15,6-15,15s6,15,15,15h60
			c9,0,15-6,15-15s-6-15-15-15h-15v-30c84,0,150-66,150-150v-30H375z M105,320H75v30c0,21,3,39,12,57l24-24c-3-12-6-21-6-33V320z"/>
	</g>
</g>
<polygon fill="#5C5E62" points="480,104 369,215 135,449 24,560 0,539 459,80 "/>
</svg>
